<?xml version="1.0" encoding="UTF-8"?>
<svg width="24" height="24" viewBox="0 0 24 24" fill="none" xmlns="http://www.w3.org/2000/svg">
    <path d="M14.7 6.3C14.3 5.9 13.7 5.9 13.3 6.3L12 7.59998L10.7 6.3C10.3 5.9 9.7 5.9 9.3 6.3C8.9 6.7 8.9 7.29998 9.3 7.69998L10.6 9L9.3 10.3C8.9 10.7 8.9 11.3 9.3 11.7C9.5 11.9 9.7 12 10 12C10.3 12 10.5 11.9 10.7 11.7L12 10.4L13.3 11.7C13.5 11.9 13.8 12 14 12C14.2 12 14.5 11.9 14.7 11.7C15.1 11.3 15.1 10.7 14.7 10.3L13.4 9L14.7 7.69998C15.1 7.29998 15.1 6.7 14.7 6.3Z" fill="#007BFF"/>
    <rect x="3" y="3" width="18" height="18" rx="2" stroke="#007BFF" stroke-width="2"/>
    <path d="M8 15H16" stroke="#007BFF" stroke-width="2" stroke-linecap="round"/>
</svg>
