<?xml version="1.0" encoding="UTF-8"?>
<svg width="24" height="24" viewBox="0 0 24 24" fill="none" xmlns="http://www.w3.org/2000/svg">
    <path d="M19.589 6.686a4.793 4.793 0 0 1-3.77-4.245V2h-3.166v13.672c0 2.088-1.356 3.311-3.166 3.311-1.81 0-3.166-1.223-3.166-3.311 0-2.088 1.356-3.312 3.166-3.312.4 0 .763.073 1.07.22v-3.31c-.372-.047-.75-.072-1.134-.072C6.258 9.198 3.5 11.956 3.5 15.311c0 3.355 2.758 6.113 6.113 6.113 3.355 0 6.113-2.758 6.113-6.113V9.198c1.584 1.135 3.518 1.81 5.605 1.81V7.672c-.595 0-1.174-.087-1.742-.254z" fill="#007BFF"/>
</svg>
