<?xml version="1.0" encoding="UTF-8"?>
<svg width="24" height="24" viewBox="0 0 24 24" fill="none" xmlns="http://www.w3.org/2000/svg">
    <path d="M14.7 6.3C14.3 5.9 13.7 5.9 13.3 6.3L12 7.59998L10.7 6.3C10.3 5.9 9.7 5.9 9.3 6.3C8.9 6.7 8.9 7.29998 9.3 7.69998L10.6 9L9.3 10.3C8.9 10.7 8.9 11.3 9.3 11.7C9.5 11.9 9.7 12 10 12C10.3 12 10.5 11.9 10.7 11.7L12 10.4L13.3 11.7C13.5 11.9 13.8 12 14 12C14.2 12 14.5 11.9 14.7 11.7C15.1 11.3 15.1 10.7 14.7 10.3L13.4 9L14.7 7.69998C15.1 7.29998 15.1 6.7 14.7 6.3Z" fill="#007BFF"/>
    <path d="M19.1001 3.3C18.9001 3.1 18.7001 3 18.4001 3H5.6001C5.3001 3 5.1001 3.1 4.9001 3.3C4.7001 3.5 4.6001 3.7 4.6001 4V20C4.6001 20.3 4.7001 20.5 4.9001 20.7C5.1001 20.9 5.3001 21 5.6001 21H18.4001C18.7001 21 18.9001 20.9 19.1001 20.7C19.3001 20.5 19.4001 20.3 19.4001 20V4C19.4001 3.7 19.3001 3.5 19.1001 3.3ZM17.4001 19H6.6001V5H17.4001V19Z" fill="#007BFF"/>
</svg>
